<svg xmlns="http://www.w3.org/2000/svg" width="262" height="91.428" viewBox="0 0 262 91.4277" enable-background="new 0 0 262 91.4277"><path fill="#321C38" d="M246.435 83.942c9.51 2.412 13.116-2.24 15.144-5.199.776-1.132.401-4.699-.481-4.357-.418.16-1.482.987-2.563 2.031-2.1 2.019-4.762 4.485-6.934-.102l-.015-.002c-1.238-2.617-1.619-3.512-1.965-6.381-.632-5.225.423-8.84.169-14.102-.181-3.787-3.156-5.243-6.665-4.564-2.913.561-5.278 2.155-7.351 4.47-1.474 1.645-2.964 3.269-4.564 5.031-.526-2.832-.844-5.384-1.491-7.805-.73-2.728-2.533-3.574-5.192-3.16-4.545.705-7.949 3.534-10.956 7.193-1.063 1.297-2.132 2.227-3.39 3.766-.057-2.236-.057-3.657-.151-5.436-.165-3.109-1.733-4.325-4.373-2.993-3.39 1.713-5.545 4.993-8.148 8.724-3.278 4.704-6.436 13.732-10.571 16.376-3.098 1.807-5.648.081-5.431-1.509.713-5.225 1.458-10.421 2.132-15.643.603-4.675 1.437-10.289 1.782-15.027.225-3.103-1.411-4.524-4.298-4.296-5.037.396-7.258 4.127-8.803 8.489-1.141 3.217-2.098 7.566-3.079 10.871-1.605 5.394-3.251 10.815-7.263 14.557-1.402 1.312-3.225 2.285-5.061 2.875-1.905.608-2.867-.315-3.109-2.582-.159-1.48-.112-2.99.069-4.422.857-6.678 1.865-11.602 2.656-18.295.488-4.115-2.048-4.674-5.998-4.021-1.898.314-4.544 1.203-5.804 3.885-.296.625-.497 1.117-.655 1.58l-.002-.006-.008.029c-.161.481-.274.939-.371 1.456-2.284 8.664-5.259 14.067-8.236 18.801-3.665 5.826-9.115 11.37-10.81 9.237-3.545-4.46 1.947-14.209 4.518-19.935 2.568-5.726 5.354-7.978 3.422-12.06-1.525-3.225-4.064-7.308-7.928-6.858-3.484.408-5.374 1.142-9.284 2.201-2.967.804-.876-2.306-.467-4.464.532-3.457-2.822-3.828-5.948-3.228-3.122.598-4.985 2.542-5.518 5.668-.53 3.125 2.672 5.845 2.672 6.064 0 .219-2.318 6.856-3.419 9.555-3.572 8.791-5.313 11.633-7.889 12.615-2.577.986-3.641-1.998-3.343-4.43.853-6.963 2.96-14.77 3.126-21.795.169-7.136-.522-9.242-4.604-12.18-1.063-.765-4.188-.597-6.34 4.493-.322.764-3.189 7.636-5.804 14.023-1.063 2.6-6.39 14.677-10.623 20.874-1.706 2.242-3.464 3.485-4.273 1.69-1.023-2.281-1.384-4.813-1.642-7.406-.517-5.158-.107-10.805-.586-15.971-.364-3.914-2.762-5.158-6.63-4.079-3.009.839-5.422 2.614-7.493 5.058-1.526 1.797-3.058 3.593-4.752 5.59-.664-2.731-1.109-5.234-1.893-7.579-.933-2.797-2.84-3.46-5.825-2.738-4.748 1.147-8.215 4.262-11.247 8.126-1.106 1.41-1.004 1.225-2.334 2.968-.074-1.565.17-3.913-.347-7.173-.446-2.801-1.782-3.417-4.36-2.706-2.576.71-4.072 1.456-4.072 1.456-2.837 1.168-7.53 4.033-8.971 6.396-1.122 1.835-.969 5.683-.079 5.632 2.294-.131 4.649-3.406 5.557-4.383.783-.848 2.652-2.818 3.424-3.005 0 0-.548 2.107-1.016 3.718-.47 1.61-1.534 5.46-1.656 5.912-1.677 6.236-1.82 11.156-1.749 14.273.076 3.37-.33 6.946 4.742 8.169 1.487.358 2.827.887 3.715.354 2.038-1.221 2.731-2.358 3.156-4.735.336-1.878-.388-7.636.11-12.398.587-5.608 3.109-9.833 7.795-13.024 2.255-1.536 4.747-.863 5.093 1.647.169 1.224.04 2.553-.116 3.836-.598 4.93-1.18 7.082-1.731 12.01-.529 4.757-1.467 7.011 2.957 9.391.649.351 3.847 1.42 4.564 1.44 3.886.118 4.418-2.735 4.627-5.689.332-4.647-.558-7.595-.708-12.225-.123-3.897.207-5.011 3.657-8.045 1.683-1.481 3.647-3.019 5.699-1.913 1.91 1.029 1.673 3.334 1.411 5.392-.476 3.712-1.053 7.699-.824 11.39.41 6.624 5.36 8.344 6.525 8.645 4.319 1.118 7.788-1.499 10.467-4.653 4.759-5.471 7.81-13.566 10.005-18.088 2.005-4.131 2.423-5.658 2.79-6.384-.211 5.475-2.103 10.347-2.071 16.011.019 3.088-.022 7.854 2.162 10.325 1.898 2.152 3.291 2.724 5.377 2.375 7.685-.939 12.989-8.363 15.172-12.206 2.967-5.228 5.006-10.337 6.552-13.448 1.938-3.887 4.509-4.914 9.28-4.41 2.911.306 4.679 1.469 3.724 3.301-2.287 4.398-11.024 18.828-12.133 22.273-1.493 4.647.352 12.477 7.57 12.355 12.146-.205 20.408-12.712 24.804-21.597-.075 3.28.314 6.577 1.92 9.84 1.467 2.984 3.573 5.493 6.804 5.606 4.621.165 8.761-1.26 11.982-4.408 2.531-2.475 4.737-5.315 7.106-8.014-.016.624-.088 1.301-.041 1.985.186 2.835.401 4.397 1.408 7.336.527 1.538 1.595 3.422 3.33 3.674.722.103 1.871.322 4.606-.227 2.734-.549 8.563-2.019 12.821-8.281 2.879-4.231 6.76-11.608 8.967-15.059-.19.656-.77 2.425-.972 3.061-1.515 4.759-1.344 10.293-1.287 14.268.066 4.74 1.159 7.361 5.963 8.587 4.939 1.26 5.951-1.887 5.792-5.756-.051-1.201-1.159-6.732-.858-11.532.345-5.486 3.517-9.361 7.896-12.127 2.336-1.473 4.005-.564 4.147 2.224.064 1.244-.143 2.546-.334 3.812-.749 4.854-1.151 9.281-1.893 14.129-1.398 9.149 6.396 8.783 7.133 8.889 3.846.553 5.329.67 5.45-3.59.129-4.554-1.332-7.893-1.326-12.44.006-3.903.584-6.228 3.82-9.001 1.584-1.356 3.481-2.736 5.391-1.572 1.909 1.168 1.503 3.526 1.219 5.627-.509 3.782-.617 3.58-.493 7.211.17 5.128 1.385 6.707 2.815 8.048 1.321 1.237 3.422 1.826 3.422 1.826zM100.76 19.407c.298-.114.749.118 1.534-.222s1.234-.833 1.317-.902c.082-.07-.663.352-.885.431-.22.08-.935.144-1.062.096-.127-.047 1.753-.948 2.458-1.635.705-.689 1.182-1.544 1.26-2.683.077-1.141-.153-1.779-.189-2.541s-.01-.844.012-.928l-.229-.263c.017-.098 1.068-1.785 1.393-2.514.769-1.726-1.655-4.973-2.587-5.503-.243-.139-.589-.273-1.073-.352-.483-.077-3.813-2.664-7.984-.583-3.023 1.508-6.43 4.77-1.5 13.777 2.138 3.911 5.535 4.591 7.534 3.822z"/></svg>